<?xml version="1.0"?>
<svg xmlns="http://www.w3.org/2000/svg" height="512px" viewBox="-63 0 479 480" width="512px" class="hovered-paths"><g><path d="m296.5 8v80l-24-32-24 32v-80zm0 0" fill="#bddbff" data-original="#BDDBFF" class="hovered-path active-path" style="fill:#FF9DF7" data-old_color="#bddbff"/><g fill="#3d9ae2"><path d="m328.5 0h-304c-13.253906 0-24 10.746094-24 24v432c0 13.253906 10.746094 24 24 24h304c13.253906 0 24-10.746094 24-24v-432c0-13.253906-10.746094-24-24-24zm-72 16h32v48l-9.601562-12.800781c-1.574219-1.914063-3.921876-3.019531-6.398438-3.019531s-4.824219 1.105468-6.398438 3.019531l-9.601562 12.800781zm80 440c0 4.417969-3.582031 8-8 8h-304c-4.417969 0-8-3.582031-8-8v-432c0-4.417969 3.582031-8 8-8h216v72c0 3.445312 2.203125 6.5 5.46875 7.589844 3.269531 1.089844 6.863281-.035156 8.929688-2.789063l17.601562-23.464843 17.601562 23.464843c1.507813 2.011719 3.878907 3.199219 6.398438 3.199219.859375-.003906 1.710938-.140625 2.527344-.40625 3.269531-1.089844 5.472656-4.148438 5.472656-7.59375v-72h24c4.417969 0 8 3.582031 8 8zm0 0" data-original="#3D9AE2" class="" style="fill:#B83280" data-old_color="#3D9AE2"/><path d="m82.84375 125.65625 11.3125-11.3125-26.34375-26.34375 26.34375-26.34375-11.3125-11.3125-32 32c-3.121094 3.125-3.121094 8.1875 0 11.3125zm0 0" data-original="#3D9AE2" class="" style="fill:#B83280" data-old_color="#3D9AE2"/><path d="m174.15625 125.65625 32-32c3.121094-3.125 3.121094-8.1875 0-11.3125l-32-32-11.3125 11.3125 26.34375 26.34375-26.34375 26.34375zm0 0" data-original="#3D9AE2" class="" style="fill:#B83280" data-old_color="#3D9AE2"/><path d="m112.738281 118.0625 16.007813-63.996094 15.519531 3.878906-16.003906 63.996094zm0 0" data-original="#3D9AE2" class="" style="fill:#B83280" data-old_color="#3D9AE2"/><path d="m48.5 160h32v16h-32zm0 0" data-original="#3D9AE2" class="" style="fill:#B83280" data-old_color="#3D9AE2"/><path d="m96.5 160h80v16h-80zm0 0" data-original="#3D9AE2" class="" style="fill:#B83280" data-old_color="#3D9AE2"/><path d="m192.5 160h16v16h-16zm0 0" data-original="#3D9AE2" class="" style="fill:#B83280" data-old_color="#3D9AE2"/><path d="m80.5 192h32v16h-32zm0 0" data-original="#3D9AE2" class="" style="fill:#B83280" data-old_color="#3D9AE2"/><path d="m128.5 192h48v16h-48zm0 0" data-original="#3D9AE2" class="" style="fill:#B83280" data-old_color="#3D9AE2"/><path d="m192.5 192h64v16h-64zm0 0" data-original="#3D9AE2" class="" style="fill:#B83280" data-old_color="#3D9AE2"/><path d="m96.5 224h48v16h-48zm0 0" data-original="#3D9AE2" class="" style="fill:#B83280" data-old_color="#3D9AE2"/><path d="m160.5 224h16v16h-16zm0 0" data-original="#3D9AE2" class="" style="fill:#B83280" data-old_color="#3D9AE2"/><path d="m192.5 224h40v16h-40zm0 0" data-original="#3D9AE2" class="" style="fill:#B83280" data-old_color="#3D9AE2"/><path d="m248.5 224h48v16h-48zm0 0" data-original="#3D9AE2" class="" style="fill:#B83280" data-old_color="#3D9AE2"/><path d="m80.5 352h48v16h-48zm0 0" data-original="#3D9AE2" class="" style="fill:#B83280" data-old_color="#3D9AE2"/><path d="m144.5 352h16v16h-16zm0 0" data-original="#3D9AE2" class="" style="fill:#B83280" data-old_color="#3D9AE2"/><path d="m176.5 352h40v16h-40zm0 0" data-original="#3D9AE2" class="" style="fill:#B83280" data-old_color="#3D9AE2"/><path d="m232.5 352h48v16h-48zm0 0" data-original="#3D9AE2" class="" style="fill:#B83280" data-old_color="#3D9AE2"/><path d="m224.5 384h48v16h-48zm0 0" data-original="#3D9AE2" class="" style="fill:#B83280" data-old_color="#3D9AE2"/><path d="m48.5 256h32v16h-32zm0 0" data-original="#3D9AE2" class="" style="fill:#B83280" data-old_color="#3D9AE2"/><path d="m96.5 256h80v16h-80zm0 0" data-original="#3D9AE2" class="" style="fill:#B83280" data-old_color="#3D9AE2"/><path d="m192.5 256h64v16h-64zm0 0" data-original="#3D9AE2" class="" style="fill:#B83280" data-old_color="#3D9AE2"/><path d="m80.5 288h32v16h-32zm0 0" data-original="#3D9AE2" class="" style="fill:#B83280" data-old_color="#3D9AE2"/><path d="m128.5 288h80v16h-80zm0 0" data-original="#3D9AE2" class="" style="fill:#B83280" data-old_color="#3D9AE2"/><path d="m224.5 288h16v16h-16zm0 0" data-original="#3D9AE2" class="" style="fill:#B83280" data-old_color="#3D9AE2"/><path d="m48.5 384h32v16h-32zm0 0" data-original="#3D9AE2" class="" style="fill:#B83280" data-old_color="#3D9AE2"/><path d="m96.5 384h80v16h-80zm0 0" data-original="#3D9AE2" class="" style="fill:#B83280" data-old_color="#3D9AE2"/><path d="m192.5 384h16v16h-16zm0 0" data-original="#3D9AE2" class="" style="fill:#B83280" data-old_color="#3D9AE2"/><path d="m64.5 320h32v16h-32zm0 0" data-original="#3D9AE2" class="" style="fill:#B83280" data-old_color="#3D9AE2"/><path d="m112.5 320h64v16h-64zm0 0" data-original="#3D9AE2" class="" style="fill:#B83280" data-old_color="#3D9AE2"/><path d="m192.5 320h56v16h-56zm0 0" data-original="#3D9AE2" class="" style="fill:#B83280" data-old_color="#3D9AE2"/><path d="m264.5 320h32v16h-32zm0 0" data-original="#3D9AE2" class="" style="fill:#B83280" data-old_color="#3D9AE2"/></g></g> </svg>
